# xmcd
#
# Track frame offsets:
# 163
# 15293
# 30595
# 46483
# 61708
# 81433
# 97303
# 114950
# 137490
# 156993
#
# Disc length: 2320 seconds
#
#
# Revision: 3
# Processed by: cddbd v1.5.1PL2 Copyright (c) Steve Scherf et al.
# Submitted via: FreeRIP 2.945 
#
DISCID=77090e0a
DTITLE=Pam Tillis - All Of This Love
DYEAR=1995
DGENRE=Country
TTITLE0=Deep Down
TTITLE1=Mandolin Rain
TTITLE2=Sunset Red And Pale Moonlight
TTITLE3=It's Lonely Out There
TTITLE4=The River And The Highway
TTITLE5=You Can't Have A Good Time Without Me
TTITLE6=Betty's Got A Bass Boat
TTITLE7=Tequila Mockingbird
TTITLE8=No Two Ways About It
TTITLE9=All Of This Love
EXTD=YEAR: 1995
EXTT0=
EXTT1=
EXTT2=
EXTT3=
EXTT4=
EXTT5=
EXTT6=
EXTT7=
EXTT8=
EXTT9=
PLAYORDER=
